<svg width="27" height="38" viewBox="0 0 27 38" fill="none" xmlns="http://www.w3.org/2000/svg">
<path fill-rule="evenodd" clip-rule="evenodd" d="M11.2876 3.98866C4.8414 4.78509 0.00104462 10.2817 0.00104462 16.7739C0.00104462 23.2661 4.8414 28.7628 11.2876 29.5592C11.8163 29.6245 12.3484 29.6571 12.8836 29.6571C13.4189 29.6571 13.9509 29.6245 14.4797 29.5592C20.9259 28.7628 25.7662 23.2661 25.7662 16.7739C25.7662 10.2817 20.9259 4.78509 14.4797 3.98866C13.9509 3.92338 13.4189 3.89074 12.8836 3.89074C12.3484 3.89074 11.8163 3.92338 11.2876 3.98866ZM23.8144 0C22.0552 0 20.6289 1.42639 20.6289 3.18571C20.6289 4.94503 22.0552 6.37141 23.8144 6.37141C25.5737 6.37141 27 4.94503 27 3.18571C27 1.42639 25.5737 0 23.8144 0ZM3.94709 30.0096C3.72841 29.8529 3.513 29.6865 3.30411 29.5167C3.19313 29.4286 3.02994 29.4449 2.93855 29.5559L0.0565253 33.1333C-0.0315999 33.2443 -0.015282 33.4075 0.0956905 33.4989C3.05278 35.8816 6.59738 37.3798 10.3639 37.8433C11.1995 37.9478 12.0416 38 12.8804 38C13.7192 38 14.5645 37.9478 15.3968 37.8433C19.1634 37.3766 22.708 35.8784 25.6651 33.4989C25.776 33.4108 25.7924 33.2443 25.7042 33.1333L22.8222 29.5559C22.7341 29.4449 22.5676 29.4286 22.4567 29.5167C22.2478 29.6865 22.0323 29.8497 21.8137 30.0096C19.7313 31.5111 17.316 32.4577 14.7702 32.771C14.1435 32.8493 13.5103 32.8885 12.8804 32.8885C12.2504 32.8885 11.6172 32.8493 10.9906 32.771C8.44474 32.4577 6.0262 31.5111 3.94709 30.0096ZM14.2675 9.123C17.9623 9.78234 20.655 13.0203 20.655 16.7707C20.655 20.521 17.91 23.8145 14.1664 24.4346C13.742 24.5064 13.3145 24.5391 12.8836 24.5391C12.4528 24.5391 12.0252 24.5032 11.6009 24.4346L11.4932 24.4183C7.79849 23.7557 5.1123 20.521 5.1123 16.7707C5.1123 13.0203 7.85724 9.72685 11.6009 9.10668C12.0252 9.03487 12.4528 9.00223 12.8836 9.00223C13.3145 9.00223 13.742 9.03814 14.1664 9.10668L14.2675 9.123Z" fill="url(#paint0_linear_3045_5707)"/>
<defs>
<linearGradient id="paint0_linear_3045_5707" x1="13.5005" y1="0.522247" x2="13.5005" y2="38.1534" gradientUnits="userSpaceOnUse">
<stop stop-color="#ED2D25"/>
<stop offset="1" stop-color="#7B459A"/>
</linearGradient>
</defs>
</svg>
