<svg width="57" height="79" viewBox="0 0 57 79" fill="none" xmlns="http://www.w3.org/2000/svg">
<path fill-rule="evenodd" clip-rule="evenodd" d="M23.4748 8.2631C10.0687 9.91302 0.0021725 21.3001 0.0021725 34.7497C0.0021725 48.1992 10.0687 59.5863 23.4748 61.2362C24.5745 61.3714 25.6809 61.4391 26.7941 61.4391C27.9074 61.4391 29.0138 61.3714 30.1134 61.2362C43.5196 59.5863 53.5861 48.1992 53.5861 34.7497C53.5861 21.3001 43.5196 9.91302 30.1134 8.2631C29.0138 8.12786 27.9074 8.06024 26.7941 8.06024C25.6809 8.06024 24.5745 8.12786 23.4748 8.2631ZM49.5269 0C45.8682 0 42.9019 2.95497 42.9019 6.59966C42.9019 10.2444 45.8682 13.1993 49.5269 13.1993C53.1856 13.1993 56.152 10.2444 56.152 6.59966C56.152 2.95497 53.1856 0 49.5269 0ZM8.20878 62.1694C7.75399 61.8448 7.30598 61.4999 6.87156 61.1483C6.64077 60.9657 6.30137 60.9995 6.11131 61.2294L0.117556 68.6405C-0.0657184 68.8705 -0.0317821 69.2085 0.199008 69.3979C6.34888 74.3341 13.7206 77.4378 21.5539 78.398C23.2916 78.6144 25.0429 78.7226 26.7874 78.7226C28.5318 78.7226 30.2899 78.6144 32.0208 78.398C39.8541 77.4311 47.2258 74.3273 53.3757 69.3979C53.6065 69.2153 53.6404 68.8705 53.4571 68.6405L47.4634 61.2294C47.2801 60.9995 46.9339 60.9657 46.7031 61.1483C46.2687 61.4999 45.8207 61.838 45.3659 62.1694C41.0352 65.2799 36.0122 67.2408 30.7176 67.89C29.4143 68.0523 28.0974 68.1334 26.7874 68.1334C25.4773 68.1334 24.1604 68.0523 22.8571 67.89C17.5625 67.2408 12.5327 65.2799 8.20878 62.1694ZM29.6722 18.8996C37.3562 20.2656 42.9562 26.9734 42.9562 34.7429C42.9562 42.5124 37.2476 49.3352 29.4618 50.6199C28.5794 50.7687 27.6902 50.8363 26.7941 50.8363C25.8981 50.8363 25.0089 50.762 24.1265 50.6199L23.9025 50.5861C16.2185 49.2135 10.6321 42.5124 10.6321 34.7429C10.6321 26.9734 16.3407 20.1506 24.1265 18.8658C25.0089 18.7171 25.8981 18.6495 26.7941 18.6495C27.6902 18.6495 28.5794 18.7238 29.4618 18.8658L29.6722 18.8996Z" fill="url(#paint0_linear_3225_4881)"/>
<defs>
<linearGradient id="paint0_linear_3225_4881" x1="28.0771" y1="1.08191" x2="28.0771" y2="79.0404" gradientUnits="userSpaceOnUse">
<stop stop-color="#ED2D25"/>
<stop offset="1" stop-color="#7B459A"/>
</linearGradient>
</defs>
</svg>
