<svg width="24" height="24" viewBox="0 0 24 24" fill="none" xmlns="http://www.w3.org/2000/svg">
<rect width="24" height="24" fill="white"/>
<path fill-rule="evenodd" clip-rule="evenodd" d="M5.74033 8.16807C6.49433 7.37307 6.76133 7.15007 7.08233 7.04707C7.30482 6.98855 7.53822 6.98512 7.76233 7.03707C8.05733 7.12307 8.13433 7.18807 9.10233 8.15107C9.95233 8.99707 10.0363 9.08907 10.1183 9.25107C10.2769 9.54265 10.3024 9.88837 10.1883 10.2001C10.1043 10.4351 9.98033 10.5911 9.46533 11.1091L9.12933 11.4461C9.04093 11.5357 9.01997 11.672 9.07733 11.7841C9.82321 13.0566 10.8812 14.1181 12.1513 14.8681C12.2978 14.9466 12.4783 14.9211 12.5973 14.8051L12.9203 14.4871C13.1199 14.2823 13.3313 14.0893 13.5533 13.9091C13.9015 13.6936 14.3362 13.6728 14.7033 13.8541C14.8823 13.9381 14.9423 13.9931 15.8193 14.8671C16.7193 15.7671 16.7483 15.7961 16.8493 16.0031C17.0379 16.346 17.036 16.7619 16.8443 17.1031C16.7443 17.2951 16.6883 17.3651 16.1803 17.8841C15.8733 18.1981 15.5803 18.4841 15.5383 18.5261C15.1188 18.8728 14.581 19.0431 14.0383 19.0011C13.0455 18.9102 12.0847 18.603 11.2233 18.1011C9.31416 17.0896 7.68898 15.6156 6.49633 13.8141C6.23552 13.4374 6.00353 13.0416 5.80233 12.6301C5.26624 11.711 4.98909 10.664 5.00033 9.60007C5.04065 9.04159 5.3081 8.52404 5.74033 8.16807Z" stroke="black" stroke-width="1.5" stroke-linecap="round" stroke-linejoin="round"/>
<path d="M14.3416 4.29409C13.9518 4.15416 13.5223 4.35677 13.3824 4.74664C13.2424 5.1365 13.4451 5.56598 13.8349 5.70591L14.3416 4.29409ZM18.2867 10.0832C18.4332 10.4707 18.8661 10.666 19.2535 10.5195C19.641 10.373 19.8363 9.94021 19.6898 9.55276L18.2867 10.0832ZM13.1535 6.52142C12.7495 6.43018 12.348 6.68374 12.2567 7.08778C12.1655 7.49182 12.419 7.89333 12.8231 7.98458L13.1535 6.52142ZM16.0696 11.1774C16.1675 11.5799 16.5732 11.8267 16.9757 11.7287C17.3781 11.6307 17.625 11.2251 17.527 10.8226L16.0696 11.1774ZM13.8349 5.70591C15.8882 6.44286 17.5153 8.04271 18.2867 10.0832L19.6898 9.55276C18.763 7.10139 16.8083 5.17942 14.3416 4.29409L13.8349 5.70591ZM12.8231 7.98458C14.4237 8.34607 15.6814 9.58301 16.0696 11.1774L17.527 10.8226C17.0041 8.67475 15.3098 7.0084 13.1535 6.52142L12.8231 7.98458Z" fill="black"/>
</svg>
