<svg width="306" height="88" viewBox="0 0 306 88" fill="none" xmlns="http://www.w3.org/2000/svg">
<g clip-path="url(#clip0_1761_4765)">
<path d="M269.732 45.3253C269.583 44.4463 269.515 43.5605 269.515 42.6747C269.515 41.7888 269.589 40.8963 269.732 40.0172C271.022 32.2613 277.789 26.5745 285.677 26.5745C289.98 26.5745 294.06 28.2582 297.108 31.2875L298.336 32.5114C298.547 32.7211 298.886 32.7211 299.096 32.5114L305.85 25.7833C306.061 25.5737 306.061 25.2356 305.85 25.026L304.622 23.8021C299.585 18.7847 292.804 15.9852 285.677 15.9852C272.176 15.9852 260.745 26.0132 259.088 39.3681C258.953 40.4635 258.885 41.5657 258.885 42.6747C258.885 43.7836 258.953 44.8858 259.088 45.9812C260.745 59.3293 272.176 69.3641 285.677 69.3641C292.804 69.3641 299.578 66.5646 304.622 61.5473L305.85 60.3233C306.061 60.1137 306.061 59.7756 305.85 59.566L299.096 52.8379C298.886 52.6282 298.547 52.6282 298.336 52.8379L297.108 54.0618C294.067 57.0911 289.98 58.7749 285.677 58.7749C277.789 58.7749 271.022 53.0881 269.732 45.3321V45.3253Z" fill="#26235C"/>
<path d="M143.164 16.1881C129.758 17.838 119.691 29.2251 119.691 42.6747C119.691 56.1242 129.758 67.5113 143.164 69.1612C144.264 69.2964 145.37 69.3641 146.483 69.3641C147.597 69.3641 148.703 69.2964 149.803 69.1612C163.209 67.5113 173.275 56.1242 173.275 42.6747C173.275 29.2251 163.209 17.838 149.803 16.1881C148.703 16.0529 147.597 15.9852 146.483 15.9852C145.37 15.9852 144.264 16.0529 143.164 16.1881ZM149.361 26.8246C157.045 28.1906 162.645 34.8984 162.645 42.6679C162.645 50.4374 156.937 57.2602 149.151 58.5449C148.269 58.6937 147.379 58.7613 146.483 58.7613C145.587 58.7613 144.698 58.687 143.816 58.5449L143.592 58.5111C135.908 57.1385 130.321 50.4374 130.321 42.6679C130.321 34.8984 136.03 28.0756 143.816 26.7908C144.698 26.6421 145.587 26.5745 146.483 26.5745C147.379 26.5745 148.269 26.6488 149.151 26.7908L149.361 26.8246Z" fill="#26235C"/>
<path d="M25.1908 28.5287C30.4719 29.712 34.2731 34.4318 34.2731 39.8279V68.8231C34.2731 69.1206 34.5175 69.3573 34.8093 69.3573H44.36C44.6586 69.3573 44.8962 69.1139 44.8962 68.8231V39.8279C44.8962 28.9344 36.8389 19.5758 26.0258 17.9192C24.9058 17.7501 23.7722 17.6622 22.6386 17.6622C21.505 17.6622 20.3714 17.7501 19.2514 17.9192C8.45181 19.5758 0.394531 28.9276 0.394531 39.8279V68.8231C0.394531 69.1206 0.638897 69.3573 0.930778 69.3573H10.4814C10.7801 69.3573 11.0176 69.1139 11.0176 68.8231V39.8279C11.0176 34.4318 14.8257 29.712 20.0999 28.5287C20.9348 28.3393 21.7833 28.2447 22.6386 28.2447C23.4939 28.2447 24.3424 28.3393 25.1773 28.5219L25.1908 28.5287Z" fill="#26235C"/>
<path d="M71.762 58.4909C66.481 57.3075 62.6798 52.5877 62.6798 47.1916V18.1896C62.6798 17.8921 62.4354 17.6554 62.1435 17.6554H52.5929C52.2942 17.6554 52.0566 17.8989 52.0566 18.1896V47.1849C52.0566 58.0784 60.1139 67.4369 70.9271 69.0936C72.0471 69.2626 73.1807 69.3505 74.3143 69.3505C75.4479 69.3505 76.5814 69.2626 77.7015 69.0936C88.5078 67.4302 96.5719 58.0784 96.5719 47.1849V18.1896C96.5719 17.8921 96.3275 17.6554 96.0357 17.6554H86.485C86.1864 17.6554 85.9488 17.8989 85.9488 18.1896V47.1849C85.9488 52.5809 82.1408 57.3008 76.8665 58.4841C76.0316 58.6734 75.1831 58.7681 74.3278 58.7681C73.4726 58.7681 72.6241 58.6734 71.7892 58.4909H71.762Z" fill="#26235C"/>
<path d="M240.83 17.6554C240.531 17.6554 240.294 17.8989 240.294 18.1896V68.8163C240.294 69.1139 240.538 69.3505 240.83 69.3505H250.38C250.679 69.3505 250.917 69.1071 250.917 68.8163V18.1896C250.917 17.8921 250.672 17.6554 250.38 17.6554H240.83ZM245.609 0C242.113 0 239.275 2.81973 239.275 6.3089C239.275 9.79806 242.106 12.6178 245.609 12.6178C249.111 12.6178 251.942 9.79806 251.942 6.3089C251.942 2.81973 249.111 0 245.609 0Z" fill="#26235C"/>
<path d="M104.235 2.72507C103.937 2.72507 103.699 2.9685 103.699 3.25926V68.8164C103.699 69.1139 103.944 69.3505 104.235 69.3505H113.786C114.085 69.3505 114.322 69.1071 114.322 68.8164V3.26602C114.322 2.9685 114.078 2.73183 113.786 2.73183H104.235V2.72507Z" fill="#26235C"/>
<path fill-rule="evenodd" clip-rule="evenodd" d="M202.112 17.5405C188.705 19.1904 178.639 30.5775 178.639 44.0271C178.639 57.4766 188.705 68.8637 202.112 70.5136C203.211 70.6488 204.318 70.7165 205.431 70.7165C206.544 70.7165 207.651 70.6488 208.75 70.5136C222.156 68.8637 232.223 57.4766 232.223 44.0271C232.223 30.5775 222.156 19.1904 208.75 17.5405C207.651 17.4053 206.544 17.3376 205.431 17.3376C204.318 17.3376 203.211 17.4053 202.112 17.5405ZM228.164 9.27739C224.505 9.27739 221.539 12.2324 221.539 15.8771C221.539 19.5217 224.505 22.4767 228.164 22.4767C231.822 22.4767 234.789 19.5217 234.789 15.8771C234.789 12.2324 231.822 9.27739 228.164 9.27739ZM186.845 71.4468C186.391 71.1222 185.943 70.7773 185.508 70.4257C185.277 70.2431 184.938 70.2769 184.748 70.5068L178.754 77.9179C178.571 78.1478 178.605 78.4859 178.836 78.6753C184.986 83.6115 192.357 86.7152 200.191 87.6754C201.928 87.8918 203.68 88 205.424 88C207.169 88 208.927 87.8918 210.658 87.6754C218.491 86.7085 225.863 83.6047 232.012 78.6753C232.243 78.4927 232.277 78.1478 232.094 77.9179L226.1 70.5068C225.917 70.2769 225.571 70.2431 225.34 70.4257C224.905 70.7773 224.457 71.1154 224.003 71.4468C219.672 74.5573 214.649 76.5182 209.354 77.1674C208.051 77.3296 206.734 77.4108 205.424 77.4108C204.114 77.4108 202.797 77.3296 201.494 77.1674C196.199 76.5182 191.169 74.5573 186.845 71.4468ZM208.309 28.177C215.993 29.543 221.593 36.2508 221.593 44.0203C221.593 51.7898 215.884 58.6126 208.099 59.8973C207.216 60.0461 206.327 60.1137 205.431 60.1137C204.535 60.1137 203.646 60.0393 202.763 59.8973L202.539 59.8635C194.855 58.4909 189.269 51.7898 189.269 44.0203C189.269 36.2508 194.977 29.428 202.763 28.1432C203.646 27.9945 204.535 27.9268 205.431 27.9268C206.327 27.9268 207.216 28.0012 208.099 28.1432L208.309 28.177Z" fill="url(#paint0_linear_1761_4765)"/>
<path d="M1.49965 84.8827H0.345703L0.413582 82.1577L0.345703 75.8285H1.50644L1.43856 82.0562L1.49286 84.8827H1.49965Z" fill="#797D84" stroke="#797D84" stroke-width="0.3" stroke-miterlimit="10"/>
<path d="M13.7044 84.8827H12.5165L7.82602 77.6339H7.73777L7.7242 81.9007L7.76492 84.8827H6.69922L6.7671 82.1982L6.72637 75.8285H7.91426L12.5911 83.0773H12.693L12.6794 75.8894L13.7587 75.8014L13.6704 82.2253L13.6976 84.8827H13.7044Z" fill="#797D84" stroke="#797D84" stroke-width="0.3" stroke-miterlimit="10"/>
<path d="M20.0575 79.9533L21.5916 79.9803L23.0646 79.9398L23.1528 80.0547L23.051 80.9135L21.4762 80.8729L20.0439 80.8864L20.0304 82.0562L20.0847 84.8827H18.9375L19.0054 82.1577L18.9375 75.8285H23.7705L23.8588 75.9434L23.7569 76.8495L21.673 76.7819L20.0847 76.809L20.0575 79.96V79.9533Z" fill="#797D84" stroke="#797D84" stroke-width="0.3" stroke-miterlimit="10"/>
<path d="M28.7936 84.8827H27.6465L27.7144 82.1577L27.6465 75.8285H28.8072L28.7393 82.0562L28.7936 84.8827Z" fill="#797D84" stroke="#797D84" stroke-width="0.3" stroke-miterlimit="10"/>
<path d="M40.9993 84.8827H39.8114L35.1209 77.6339H35.0327L35.0191 81.9007L35.0598 84.8827H33.9941L34.062 82.1982L34.0213 75.8285H35.2092L39.8861 83.0773H39.9879L39.9743 75.8894L41.0536 75.8014L40.9653 82.2253L40.9925 84.8827H40.9993Z" fill="#797D84" stroke="#797D84" stroke-width="0.3" stroke-miterlimit="10"/>
<path d="M47.3796 84.8827H46.2324L46.3003 82.1577L46.2324 75.8285H47.3932L47.3253 82.0562L47.3796 84.8827Z" fill="#797D84" stroke="#797D84" stroke-width="0.3" stroke-miterlimit="10"/>
<path d="M57.8328 76.8157L56.2444 76.7278H55.3213L55.2805 82.0562L55.3213 84.8827H54.1741L54.2623 82.1577L54.1945 76.7346H53.2713L51.6558 76.8225L51.5879 76.7076L51.6761 75.8353H57.8464L57.9346 75.9502L57.8464 76.8225L57.8328 76.8157Z" fill="#797D84" stroke="#797D84" stroke-width="0.3" stroke-miterlimit="10"/>
<path d="M67.1866 84.8827H62.082L62.1499 82.1577L62.082 75.8285H67.2001L67.2544 75.9434L67.1662 76.8157L65.028 76.7752L63.2292 76.8022L63.202 79.7707L64.9058 79.7978L66.4059 79.7572L66.4942 79.8586L66.3924 80.7309L64.804 80.7039L63.1885 80.7174L63.1749 82.0562L63.2156 83.9361L65.0144 83.9496L67.2001 83.8955L67.268 84.0104L67.1798 84.8827H67.1866Z" fill="#797D84" stroke="#797D84" stroke-width="0.3" stroke-miterlimit="10"/>
<path d="M77.5104 84.8827H76.3633L76.4312 82.1577L76.3633 75.8285H77.524L77.4561 82.0562L77.5104 84.8827Z" fill="#797D84" stroke="#797D84" stroke-width="0.3" stroke-miterlimit="10"/>
<path d="M89.7219 84.8827H88.534L83.8436 77.6339H83.7553L83.7418 81.9007L83.7825 84.8827H82.7168L82.7847 82.1982L82.7439 75.8285H83.9318L88.6087 83.0773H88.7105L88.697 75.8894L89.7762 75.8014L89.688 82.2253L89.7152 84.8827H89.7219Z" fill="#797D84" stroke="#797D84" stroke-width="0.3" stroke-miterlimit="10"/>
<path d="M101.954 84.8827H100.766L96.076 77.6339H95.9878L95.9742 81.9007L96.0149 84.8827H94.9492L95.0171 82.1982L94.9764 75.8285H96.1643L100.841 83.0773H100.943L100.929 75.8894L102.009 75.8014L101.92 82.2253L101.948 84.8827H101.954Z" fill="#797D84" stroke="#797D84" stroke-width="0.3" stroke-miterlimit="10"/>
<path d="M113.35 76.8834C114.016 77.6475 114.348 78.7429 114.348 80.1764C114.348 81.7114 113.995 82.8947 113.282 83.7332C112.57 84.5717 111.565 84.9909 110.262 84.9909C109.033 84.9909 108.083 84.592 107.411 83.8076C106.739 83.0164 106.406 81.894 106.406 80.4334C106.406 78.9728 106.759 77.7692 107.465 76.9577C108.171 76.1463 109.176 75.7406 110.493 75.7406C111.728 75.7406 112.685 76.1193 113.35 76.8834ZM107.574 80.2914C107.574 82.7933 108.497 84.051 110.336 84.051C112.176 84.051 113.174 82.8271 113.174 80.3793C113.174 79.1283 112.943 78.1952 112.488 77.5866C112.027 76.978 111.334 76.6737 110.398 76.6737C108.517 76.6737 107.574 77.8774 107.574 80.2914Z" fill="#797D84" stroke="#797D84" stroke-width="0.3" stroke-miterlimit="10"/>
<path d="M120.444 84.8827L117.41 75.8285H118.571L118.781 76.7481L121.089 83.74H121.177L123.73 76.8022L123.954 75.8285H125.087L121.754 84.8827H120.438H120.444Z" fill="#797D84" stroke="#797D84" stroke-width="0.3" stroke-miterlimit="10"/>
<path d="M134.157 84.8827L133.947 83.9766L133.438 82.4214L131.394 82.3808L129.548 82.4214L128.998 83.9158L128.774 84.876H127.641L130.974 75.8217H132.29L135.325 84.876H134.164L134.157 84.8827ZM131.652 76.9983H131.55L129.908 81.4612L131.496 81.4882L133.125 81.4612L131.652 76.9983Z" fill="#797D84" stroke="#797D84" stroke-width="0.3" stroke-miterlimit="10"/>
<path d="M143.985 76.8157L142.397 76.7278H141.474L141.433 82.0562L141.474 84.8827H140.326L140.415 82.1577L140.347 76.7346H139.424L137.808 76.8225L137.74 76.7076L137.828 75.8353H143.999L144.087 75.9502L143.999 76.8225L143.985 76.8157Z" fill="#797D84" stroke="#797D84" stroke-width="0.3" stroke-miterlimit="10"/>
<path d="M149.387 84.8827H148.24L148.308 82.1577L148.24 75.8285H149.401L149.333 82.0562L149.387 84.8827Z" fill="#797D84" stroke="#797D84" stroke-width="0.3" stroke-miterlimit="10"/>
<path d="M160.751 76.8834C161.416 77.6475 161.749 78.7429 161.749 80.1764C161.749 81.7114 161.396 82.8947 160.683 83.7332C159.977 84.5717 158.965 84.9909 157.662 84.9909C156.434 84.9909 155.483 84.592 154.811 83.8076C154.139 83.0164 153.807 81.894 153.807 80.4334C153.807 78.9728 154.16 77.7692 154.866 76.9577C155.572 76.1463 156.576 75.7406 157.893 75.7406C159.128 75.7406 160.085 76.1193 160.751 76.8834ZM154.974 80.2914C154.974 82.7933 155.897 84.051 157.737 84.051C159.576 84.051 160.574 82.8271 160.574 80.3793C160.574 79.1283 160.343 78.1952 159.889 77.5866C159.427 76.978 158.735 76.6737 157.798 76.6737C155.918 76.6737 154.974 77.8774 154.974 80.2914Z" fill="#797D84" stroke="#797D84" stroke-width="0.3" stroke-miterlimit="10"/>
<path d="M173.154 84.8827H171.966L167.275 77.6339H167.187L167.173 81.9007L167.214 84.8827H166.148L166.216 82.1982L166.176 75.8285H167.37L172.047 83.0773H172.149L172.135 75.8894L173.215 75.8014L173.126 82.2253L173.154 84.8827Z" fill="#797D84" stroke="#797D84" stroke-width="0.3" stroke-miterlimit="10"/>
</g>
<defs>
<linearGradient id="paint0_linear_1761_4765" x1="206.714" y1="10.3593" x2="206.714" y2="88.3178" gradientUnits="userSpaceOnUse">
<stop stop-color="#ED2D25"/>
<stop offset="1" stop-color="#7B459A"/>
</linearGradient>
<clipPath id="clip0_1761_4765">
<rect width="306" height="88" fill="white"/>
</clipPath>
</defs>
</svg>
