<svg id="Layer_1" data-name="Layer 1" xmlns="http://www.w3.org/2000/svg" viewBox="0 0 458.37 155.12"><defs><style>.cls-1{fill:#2f3135;}</style></defs><path class="cls-1" d="M262.94,317.69c15.27.76,18.3-2.85,20.94-8.21,2.91-5.93,2-17.47-3.31-23.43-3.77-4.23-8-3.45-17.31-3.45Zm-17.07-51.13c24.31,1.33,38.91-5.3,51.4,14.62,3.18,5.07,4.65,13.06,4.33,21-.35,8.53-2.93,21.56-13.87,28.12-10.16,6.09-17.32,3-42.44,3.67Z" transform="translate(-131.7 -261.64)"/><path class="cls-1" d="M354.32,292.16l21.27,0a72.11,72.11,0,0,1-.06,15.33c-6.7.39-14.79,0-21.09.27a54.22,54.22,0,0,0-.11,10.84l24.36.17a68.21,68.21,0,0,1,.24,15.09c-12.58.33-30.52-.05-42.16,0-.23-22.34-.23-44.72,0-67.49,13.09-.28,32.21-.24,42.58.09,0,6-.17,10.6-.49,15.42l-24.54.18a47.58,47.58,0,0,0,0,10.11" transform="translate(-131.7 -261.64)"/><path class="cls-1" d="M199.06,317.69c15.27.76,18.3-2.85,20.93-8.21,2.91-5.93,2-17.47-3.3-23.43-3.77-4.23-8-3.45-17.32-3.45ZM182,266.56c24.31,1.33,38.91-5.3,51.4,14.62,3.18,5.07,4.65,13.06,4.33,21-.35,8.53-2.93,21.56-13.87,28.12-10.16,6.09-17.33,3-42.44,3.67Z" transform="translate(-131.7 -261.64)"/><path class="cls-1" d="M149.42,292.16l21.27,0a72.11,72.11,0,0,1-.06,15.33c-6.7.39-14.79,0-21.09.27a54.19,54.19,0,0,0-.12,10.84l24.37.17a68.83,68.83,0,0,1,.24,15.09c-12.58.33-30.52-.05-42.16,0-.23-22.34-.23-44.72,0-67.49,13.09-.28,32.21-.24,42.58.09.05,6-.17,10.6-.5,15.42l-24.53.18a46.92,46.92,0,0,0,0,10.11" transform="translate(-131.7 -261.64)"/><path class="cls-1" d="M309.37,334l0-67.6a98.51,98.51,0,0,1,16.92.11v67.53Z" transform="translate(-131.7 -261.64)"/><path class="cls-1" d="M324.71,371.7l21.28,0a72.11,72.11,0,0,1-.06,15.33c-6.71.39-14.8,0-21.09.28a54.09,54.09,0,0,0-.12,10.83l24.37.17a68.84,68.84,0,0,1,.24,15.09c-12.58.33-30.52-.05-42.17,0-.22-22.35-.22-44.72,0-67.5,13.1-.27,32.21-.23,42.59.09.05,6-.18,10.61-.5,15.42l-24.54.18a48.36,48.36,0,0,0,0,10.12" transform="translate(-131.7 -261.64)"/><path class="cls-1" d="M219.07,389.51c-1.86-5.56-4.07-11.38-6.14-16.94-2,5.65-4,11.39-5.63,17.06a55.46,55.46,0,0,0,11.77-.12m8.61,23.85c-1.31-3.49-2.52-6-3.74-9.47,0,0-7.61.19-11.07.19s-11-.19-11-.19c-1.15,3.16-2.22,5.76-3.58,9.47-5.86.24-12.48.24-18.38,0l27-67.34a123.74,123.74,0,0,1,13.37.06c9.33,22.33,17.62,44.79,26.07,67.28-5.88.24-13,.18-18.67,0" transform="translate(-131.7 -261.64)"/><path class="cls-1" d="M297.5,391.16c-.24,9.95-6.61,23.45-24.92,23.45-19.21,0-25.2-13.83-25.2-23.45,0-16.35-.21-30-.3-44.82a84.5,84.5,0,0,1,17.13,0s-.16,27.88-.16,42.32c0,6.06,2.53,10.6,8.13,10.6,6.77,0,9-5.41,9-11.17,0-13.77-.29-28.88,0-41.75a90.12,90.12,0,0,1,16.91,0c0,.84-.28,32.6-.57,44.82" transform="translate(-131.7 -261.64)"/><path class="cls-1" d="M374.08,378.32c6.95-.48,11.29,1.07,14.37-3.27a10.13,10.13,0,0,0,1.16-9.38c-2.74-6.73-8.05-4.36-15.53-4.9-.14,4.79-.14,13.11,0,17.55m34.29,35.1c-4.47.17-14.44.16-19.85-.06-4.81-6.25-9.35-14.22-14.41-20.61-.14,5.6.17,14.33-.08,20.61-5.76.34-11.88.17-17.51,0V345.9c26.32,1.61,38.89-5.47,48.49,11.66a22.9,22.9,0,0,1-2,25.22,26.24,26.24,0,0,1-10.31,7.68v.24c5.17,7.28,10.86,15.49,15.66,22.72" transform="translate(-131.7 -261.64)"/><path class="cls-1" d="M149.7,360.8c.09,3.27,0,7.54,0,11.12,4.4-.28,10.94,1.2,13.07-2.82a6.2,6.2,0,0,0,.23-5c-1.89-4.77-7.84-2.83-13.28-3.27m0,25c-.11,3.71-.06,9.42,0,13.28,6.34.33,13.39,1.13,15.38-4.41a6.45,6.45,0,0,0-1.34-6.72c-2.67-3-7.56-1.89-14-2.15m-17.62,27.55c-.36-23.36-.54-45.31-.11-67.39,19.71.62,29.76-2.3,37.47,2.47,7.4,4.58,10.68,13.6,8.08,20.72a14.58,14.58,0,0,1-6.55,8.25c3.48.84,7.54,4.37,9.23,8.54,2.48,6.15.9,14.26-2.62,18.92-9.23,12.2-23.15,7.91-45.5,8.49" transform="translate(-131.7 -261.64)"/><path class="cls-1" d="M576.12,408.34c5,.07,12.37-1.66,14-4.47-11.94,1.35-24.68-3.54-31.61-7.74-14.85-9-16-15.07-23.72-20.29-2.2-1.49-6-4.59-6.77-7.49-.05-.19-2.09,4.68-4.53,6.66a12.5,12.5,0,0,0-1.55,1.35,6.56,6.56,0,0,1,3.43.22c3.41,1.26,2.93,3.43,5.57,3.63,3.23.26,13.16,11.12,13.16,11.12-.22,2.33-2.42.83-10.45-5.92-1.89-1.59-3.51-.24-5.27-.77-3.16-.91-1.51-2.55-5.29-3.89-2.18-.77-4-1.16-8.85,2.46-7.94,5.93-17.87,10.07-29.09,13.05a1.08,1.08,0,0,0-.16,2c2.31,1,5.4,2.34,6.67,2.45,5.42.46,11,5.74,14.48,5.79,2.12,0,7.38,3.13,9.43,2.84,3.16-.64,11.32,4.64,13.73,2.64,1.46-.47,3.77.17,5.88.82,3.79,1.36,7.64,3.2,11.63,3.87a4.77,4.77,0,0,0,4.32-1.35c.68-.72,3.45-1.06,7.28-.33,2.36.46,7.91,1.58,10-.27-2.66-.78-.69-2.51,1.67-2.18,2.58.36,7,.94,9-1.37-2.41-.15-5.11-2.89-2.93-2.85" transform="translate(-131.7 -261.64)"/><path class="cls-1" d="M524.8,357.35c.63-5.28-.78-7.14,2.87-13.49,3.55-6.16,13.44-18.07,24.39-17.63,7,.9,10.23-.65,14.63-3.36,3.07-.53,6.73-.62,8.79-.79s.71-1.3-.38-1.57c-.33-.11-.27-.19,0-.26,3.14-.73,2.7-1.95-4.62-2.6a11.7,11.7,0,0,1-7.62-3.63,6.26,6.26,0,0,0-7.26.27,5,5,0,0,0-3.53,1.4,31.87,31.87,0,0,0-14.19,6.56c-6.23,4.91-12.73,11.78-22.75,19.51-5.06,3.88-13.28,5.23-18.75,3.82-1.36-.35-6.83-1.41-10.32-6-2.82-2.9-3.63-7.14-7.16-9.74s-7.4-2.8-12.46-6.91c-17.69-14.36-32.8-35.14-33.88-61.31-2.11,1.06-4.26,3.67-5.91,7.79-1,2.43-2.75,1.38-2.71-3.47-3.65,1.76-6.4,8-6.52,10.94-.09,2.41-2.36,2.24-2.82-.93-2.09,2.39-2,7-.51,12.39.31,1.14-.8,3-1.69.59-2.45,4.65,4.75,14.69-.07,12.82-.63,2.61,1.42,7,2.27,9.1,1.09,2.69,3.55,5.87,1.78,5.87.29,6.38,8.24,11.61,6.32,12.68-.51,1.95,3.68,4.21,3.65,6-.17,7.08,6.45,11.61,7,15.1.72,4.49,5.81,7.57,6.69,10,2,5.38,11.15,11.56,16.8,14.51,1.72.9-.08,4.26-6.29,7.6-5.42,2.93-14.67,2.47-22.2,8.53,2.51.81-2.36,2.27-.92,4.56,2.51.82-2,4.45-.49,6.17,3.65.66-.85,3.36.79,5.56,2.11-.93,3.77.8,2.48,3a5.4,5.4,0,0,0,5.28,1,2,2,0,0,1,.87,2.2c2.85.46,4.19.24,5.5-.74a2.38,2.38,0,0,1,.34,1.66c1.81.24,4.61-1,4.61-1a3.57,3.57,0,0,1-.1,1.36c2.27-.49,7-3,10.92-9.06,2.51-3.86,9.16-7.49,13.95-9.25,24.24-8.92,50.71-18.43,53.21-39.2m19.33-37.78a24.24,24.24,0,0,1,6.92-2.59c.28,0-1.74.74-2.27,2.32a2.89,2.89,0,0,0,1.27,3.55c.84.59.44,1.34-1.85,1.73a5,5,0,0,1-4.44-1.71c-1.48-1.55-1.58-1.91.37-3.3M511,352a14.33,14.33,0,0,0-2.3,4.18c-1.94,5.7-5.52,12.59-16,15.37a.55.55,0,0,1-.18,0,.69.69,0,0,1-.54-.25c-2.56-3.11-.67-6.06.34-7.64.16-.26.37-.58.49-.81h-.14c-4.68,0-5.34-1.58-5.68-3.48-.17-1-.3-1.67-1.51-2.15-3.89-1.53-8.35-4.4-8.27-13.2.07-6.82-3.74-10-3.78-10a.71.71,0,0,1-.2-.84.72.72,0,0,1,.77-.4c.32.06,3.25.77,5.28,7.53,2.9,9.65,12.08,11.26,16,11.95l.57.1c1.95.36,8.82.36,11.94-1l1.16-.5c1.68-.74,2-.88,2.43-.38s.05.93-.37,1.49" transform="translate(-131.7 -261.64)"/></svg>