<svg width="213" height="41" viewBox="0 0 213 41" fill="none" xmlns="http://www.w3.org/2000/svg">
<path d="M139.073 0.729653C146.529 1.72315 154.596 10.1368 155.32 17.5518C158.316 48.0191 107.597 47.7552 109.765 18.5971C110.37 10.468 118.023 1.7749 126.318 0.734828C128.739 0.429534 136.677 0.414011 139.073 0.734828V0.729653ZM130.333 1.34541C113.925 3.18752 113.392 34.2654 127.736 38.674C137.572 41.6959 145.463 35.5745 147.145 26.038C149.225 14.2557 145.101 -0.310416 130.338 1.34541H130.333Z" fill="black"/>
<path d="M66.3373 0.729065C70.5648 1.70186 74.8233 0.904997 79.0922 0.998137C78.849 1.72774 77.9538 1.74326 77.4467 2.18826C76.1169 3.34734 76.8465 4.44951 77.3329 5.82592L91.0813 30.3632L91.9816 31.0825C94.8224 25.1163 98.1133 19.2847 100.851 13.2668C102.03 10.6744 105.301 4.42881 102.253 2.38489C101.57 1.92437 99.7122 1.84158 100.535 0.729065H100.804L101.461 1.00849C104.669 1.24134 107.758 1.04988 110.982 0.992963C111.97 1.11198 108.669 3.81305 108.416 4.09247C107.122 5.51545 105.663 7.59558 104.659 9.24106C99.4483 17.7841 95.2829 27.9778 90.538 36.8986C90.1654 37.5971 88.846 40.4948 88.1888 40.5C87.6455 40.5 87.1074 39.284 86.8642 38.839C81.1051 28.1589 76.029 15.9368 69.9128 5.65516C69.1263 4.33049 68.3139 3.23868 67.1342 2.22449C66.6374 1.80018 65.3076 1.76913 66.0631 0.73424H66.3321L66.3373 0.729065Z" fill="black"/>
<path d="M158.069 0.729065L158.726 1.00849C161.034 1.1482 163.274 1.00849 165.525 0.982614C166.933 0.96709 168.34 1.01366 169.742 0.998137C168.454 2.26588 167.264 2.88164 167.021 4.88416C167.662 14.0637 166.187 24.3246 167.021 33.3748C167.248 35.8792 168.687 37.7317 171.269 38.0318C178.456 38.8752 187.718 37.4833 193.058 32.2571C193.85 31.4809 194.264 29.9027 195.531 30.0062C194.155 33.0177 193.943 36.526 192.411 39.403H156.449C157.293 38.5182 158.617 38.068 159.28 36.9658C159.89 35.9465 160.18 33.53 160.263 32.2985C160.832 23.564 159.818 14.2292 160.247 5.43265C160.133 4.34084 159.631 2.90234 158.809 2.15722C158.452 1.8364 156.465 1.35 157.805 0.729065H158.074H158.069Z" fill="black"/>
<path d="M48.9655 0.729065C50.3419 0.760112 52.541 1.27756 53.9847 1.28273C54.9523 1.28273 59.7076 0.656623 60.0905 0.998137C59.6662 2.2814 57.8759 2.61257 57.9121 4.34602C58.5899 14.1361 57.0324 25.0594 57.9121 34.715C58.0466 36.2052 58.5847 37.3436 59.6869 38.3319C60.2043 38.7976 61.0736 38.6476 60.9081 39.403H47.8789C50.1039 37.7834 50.9215 36.7433 51.144 33.9077C51.8684 24.7593 50.5851 14.6794 51.1336 5.43265C51.0508 4.61509 50.699 3.2542 50.1763 2.61775C49.6537 1.98129 47.3511 1.33965 48.6965 0.729065C48.7844 0.729065 48.8776 0.729065 48.9655 0.729065Z" fill="black"/>
<path d="M10.4271 19.7971C9.85278 20.9251 10.4168 21.8203 10.4375 22.8759C10.5203 26.6326 9.96144 31.688 10.4478 35.217C10.7324 37.2816 12.0985 38.1613 13.6767 39.2686H0.383618L2.5103 37.618L3.63314 34.4305C3.1157 25.3338 4.32651 15.4971 3.64867 6.48838C3.47274 4.15987 2.69658 2.13665 0.109375 1.79513L0.373269 1.11728L27.3837 1.26734C33.6188 1.85723 40.5215 3.90632 39.3934 11.5335C38.7311 16.0146 33.7947 18.0585 29.8001 18.6949C28.4341 18.9123 26.6541 18.7933 25.2777 19.0623C25.0138 19.1141 24.1186 19.3417 24.5377 19.7919C24.6671 19.9316 27.2181 20.2369 27.8494 20.4129C36.9925 22.9225 36.7855 28.78 40.4956 36.0967L43.2639 39.4032H34.1725C33.5878 38.984 33.4274 38.3165 33.1738 37.7059C31.1299 32.7333 29.086 22.7621 23.7202 20.744C22.5922 20.3197 19.8497 19.8023 18.701 19.8023H10.422L10.4271 19.7971ZM10.4944 2.67479C9.8476 3.48201 10.4323 4.2944 10.4427 5.15336C10.4737 7.83373 10.4996 10.5555 10.4427 13.2359C10.4116 14.6071 9.4233 17.9136 10.9808 18.6018C11.2706 18.7312 16.3984 18.4517 17.3608 18.4517C20.8691 18.4569 23.6374 18.9847 27.0887 17.3548C32.9151 14.6071 33.5153 6.54529 27.5389 3.5441C24.0048 1.76926 18.3905 2.69549 14.3545 2.62822C13.0557 2.60753 11.7466 1.92967 10.4996 2.67997L10.4944 2.67479Z" fill="black"/>
<path d="M212.079 0.999132C211.97 2.02368 210.786 2.14269 210.222 3.0534C209.906 3.56567 209.704 4.29009 209.637 4.89033C210.247 14.2716 208.824 24.6516 209.626 33.9087C209.859 36.5891 210.832 37.8103 212.892 39.404L200.002 39.6731L199.723 39.1349C201.518 38.0069 202.646 37.2256 202.858 34.985C203.774 25.376 202.149 14.3751 202.858 4.61609C202.781 4.0055 202.186 2.66014 201.782 2.2617C201.228 1.71838 200.08 1.96158 200.142 0.993958H212.079V0.999132Z" fill="black"/>
</svg>
