<svg width="221" height="31" viewBox="0 0 221 31" fill="none" xmlns="http://www.w3.org/2000/svg">
<path d="M109.048 12.5602H95.232V1.40278H91.052V29.7361H95.232V16.3102H109.048V29.7361H113.184V1.40278H109.048M68.282 1.31019C66.764 1.26389 63.684 1.26389 60.956 1.26389V29.713H65.18V18.9259C66.236 18.9259 68.414 18.8333 70.174 18.787C72.638 18.7407 79.062 17.4444 79.018 9.64352C79.084 0.847222 69.822 1.31019 68.282 1.31019ZM68.062 15.1528H65.268V4.89815H67.644C68.744 4.89815 75.234 4.38889 75.432 9.68981C75.696 14.8981 70.57 15.1528 68.062 15.1528ZM29.298 1.26389L29.342 29.713H46.304V26.0093H33.566V16.3565H42.586C42.586 15.5463 42.542 14.3657 42.586 12.8148H33.566V5.06019H46.304C46.26 2.81482 46.304 1.26389 46.304 1.26389H29.298ZM4.636 8.20833C4.636 3.55556 10.488 3.37037 13.942 6.35648C15.13 2.76852 15.218 2.51389 15.218 2.51389C5.142 -2.5787 0.544 4.15741 0.544 8.46296C0.544 18.7639 14.426 16.5648 12.424 23.8102C11.72 26.4491 7.254 27.9537 2.106 24.6667C1.732 25.7778 1.116 27.1204 0.5 28.463C7.298 32.213 16.12 30.4074 16.406 22.6759C16.802 12.9537 4.636 13.6481 4.636 8.20833ZM182.924 9.25C182.308 0.800926 174.52 1.44907 172.804 1.35648C171.374 1.31019 168.338 1.26389 165.72 1.26389V29.6667H169.944V17.7222C171.374 17.7222 171.836 17.7222 173.992 17.6296L181.692 29.6667H186.818L178.304 16.8889C180.592 16.0093 183.254 13.9491 182.924 9.25ZM172.562 14.3889C171.616 14.3889 170.89 14.3889 169.944 14.3426V4.73611H172.166C173.222 4.73611 178.766 4.38889 179.25 9.04167C179.844 14.5509 173.706 14.3889 172.562 14.3889ZM210.798 1.31019H205.914L197.07 29.7593H201.25C202.57 24.6204 203.01 23.162 203.01 23.162L213.944 23.1157C215.22 26.912 216.166 29.8056 216.166 29.8056H220.5L210.798 1.31019ZM203.978 19.8981L208.246 5.84722H208.29L212.756 19.8519L203.978 19.8981ZM139.408 0.5C130.806 0.5 125.196 7.18982 125.196 15.5C125.196 23.8102 130.806 30.5 139.408 30.5C148.01 30.5 153.62 23.8102 153.62 15.5C153.62 7.18982 148.01 0.5 139.408 0.5ZM139.408 26.4028C133.094 26.4028 129.53 21.5648 129.53 15.5C129.53 9.50463 133.094 4.59722 139.408 4.59722C145.678 4.59722 149.286 9.43519 149.286 15.5C149.286 21.4954 145.722 26.4028 139.408 26.4028Z" fill="black"/>
</svg>
